<?xml version="1.0" standalone="no"?>
<!DOCTYPE svg PUBLIC "-//W3C//DTD SVG 20010904//EN"
 "http://www.w3.org/TR/2001/REC-SVG-20010904/DTD/svg10.dtd">
<svg version="1.0" xmlns="http://www.w3.org/2000/svg"
 width="350.000000pt" height="350.000000pt" viewBox="0 0 350.000000 350.000000"
 preserveAspectRatio="xMidYMid meet">
<metadata>
Created by potrace 1.14, written by Peter Selinger 2001-2017
</metadata>
<g transform="translate(0.000000,350.000000) scale(0.100000,-0.100000)"
fill="#000000" stroke="none">
<path d="M1590 3071 c-14 -4 -36 -7 -50 -7 -14 1 -27 -2 -30 -5 -3 -4 -23 -9
-45 -12 -22 -2 -52 -10 -67 -16 -16 -6 -28 -8 -28 -5 0 2 -14 -3 -31 -11 -17
-9 -37 -14 -45 -11 -8 3 -14 2 -14 -2 0 -4 -14 -13 -30 -19 -23 -9 -29 -8 -24
0 4 7 -3 2 -15 -10 -24 -25 -36 -30 -26 -10 4 6 1 5 -7 -3 -7 -8 -26 -22 -43
-30 -16 -8 -36 -21 -44 -28 -7 -7 -20 -11 -28 -8 -8 3 -12 2 -9 -3 3 -5 -8
-14 -24 -21 -17 -7 -30 -17 -30 -22 0 -5 -4 -7 -8 -4 -5 3 -15 -3 -24 -12 -8
-9 -25 -24 -38 -32 -12 -8 -64 -55 -114 -105 -50 -49 -95 -88 -101 -87 -5 2
-7 0 -3 -3 9 -10 -10 -47 -21 -41 -4 3 -8 -1 -8 -8 0 -10 -36 -69 -53 -86 -9
-9 -28 -44 -63 -115 -57 -116 -70 -147 -70 -161 0 -8 -7 -14 -16 -14 -14 0
-14 -2 -1 -10 8 -5 10 -10 4 -10 -7 0 -12 -6 -11 -12 1 -30 -4 -49 -10 -45 -5
3 -8 -9 -9 -26 -2 -48 -14 -99 -27 -116 -10 -12 -9 -13 1 -7 10 6 12 1 7 -26
-3 -18 -7 -55 -10 -81 -2 -27 -6 -51 -9 -54 -2 -3 -1 -15 4 -28 5 -14 5 -26
-3 -34 -7 -7 -7 -11 -1 -11 6 0 11 -7 11 -15 0 -8 -4 -15 -9 -15 -5 0 -6 -5
-2 -11 3 -6 8 -25 10 -42 2 -18 6 -47 9 -65 3 -24 2 -31 -8 -26 -6 4 -4 -1 5
-12 9 -11 19 -40 21 -64 3 -25 9 -56 15 -70 5 -14 7 -31 5 -37 -3 -7 0 -13 6
-13 6 0 11 -6 11 -14 0 -29 39 -105 61 -116 12 -7 19 -8 15 -2 -3 5 1 15 9 22
8 7 15 9 15 6 0 -4 6 -2 13 4 6 6 20 16 30 23 16 11 16 14 -2 62 -29 78 -60
214 -64 280 -2 33 -6 66 -11 73 -4 7 -2 12 5 12 9 0 9 3 0 14 -9 11 -9 15 1
20 10 5 10 7 1 12 -9 4 -10 11 -3 25 8 13 7 19 0 19 -6 0 -8 5 -4 11 6 10 14
69 15 109 0 36 22 141 30 145 4 3 6 12 2 20 -3 8 -1 15 5 15 5 0 10 6 9 13 -1
34 4 48 15 41 7 -4 8 -3 4 4 -4 7 -4 18 1 25 4 6 8 17 9 22 4 28 67 144 75
140 5 -4 6 1 3 10 -5 11 -2 14 12 9 14 -4 16 -3 5 4 -11 8 -8 18 18 55 17 25
37 51 44 59 7 7 22 26 35 42 12 16 22 25 22 20 0 -5 6 2 13 16 8 14 19 24 25
23 7 -2 11 3 9 10 -1 6 4 11 11 9 8 -1 11 2 8 6 -7 12 28 44 38 35 4 -5 6 -3
4 2 -1 6 0 11 4 13 4 2 22 17 40 34 58 55 150 108 165 96 10 -8 12 -7 8 5 -7
16 27 33 54 28 7 -1 10 2 6 8 -5 10 1 13 21 10 4 0 10 4 13 9 3 6 15 12 26 14
11 1 22 6 25 10 3 4 17 9 30 11 14 3 38 10 54 16 16 7 35 10 43 7 7 -3 13 0
13 6 0 6 3 9 6 5 3 -3 20 1 37 8 21 9 39 10 55 4 15 -6 21 -5 17 1 -3 6 1 10
9 10 9 0 16 9 16 21 0 11 4 18 8 15 5 -3 9 1 9 9 0 8 -4 12 -7 10 -4 -3 -7 6
-7 20 0 16 4 22 11 18 8 -5 8 -3 0 8 -6 8 -10 22 -9 32 2 9 3 17 2 16 -1 0
-13 -4 -27 -8z"/>
<path d="M1874 3069 c-3 -6 -6 -37 -6 -70 -1 -47 3 -63 18 -74 13 -9 23 -10
31 -4 7 7 13 6 17 0 4 -6 13 -8 21 -5 8 3 20 2 27 -2 7 -5 24 -9 38 -10 14 -1
27 -3 30 -4 3 -1 9 -2 13 -1 4 1 10 -6 14 -15 5 -13 7 -13 14 -2 8 11 10 11
18 0 4 -8 11 -13 15 -13 25 4 36 0 30 -11 -5 -7 -3 -8 5 -3 15 9 221 -93 266
-131 17 -14 24 -22 16 -18 -9 5 -12 3 -7 -5 4 -6 12 -8 18 -5 6 4 13 3 17 -2
3 -5 23 -22 44 -37 20 -16 35 -33 31 -38 -3 -5 -2 -9 3 -8 15 4 43 -13 43 -25
0 -6 9 -17 20 -24 12 -7 18 -17 15 -23 -4 -5 -1 -8 5 -7 7 2 17 -5 23 -16 7
-10 21 -28 32 -40 11 -12 26 -31 32 -42 7 -10 23 -35 35 -54 41 -64 59 -100
51 -100 -4 0 -3 -4 3 -8 17 -11 46 -71 39 -82 -3 -6 -2 -10 4 -10 16 0 24 -40
10 -56 -10 -12 -10 -15 1 -12 16 3 40 -59 43 -109 1 -18 5 -33 8 -33 3 0 6 -6
7 -12 0 -7 4 -42 8 -78 4 -36 7 -85 7 -110 -1 -119 -3 -131 -15 -124 -9 5 -9
2 1 -9 11 -14 11 -17 0 -17 -12 0 -12 -2 0 -9 16 -11 5 -34 -12 -24 -9 5 -9 3
0 -8 8 -10 9 -27 2 -59 -5 -25 -12 -58 -15 -75 -3 -16 -10 -32 -15 -33 -5 -2
-7 -8 -4 -12 3 -5 -1 -26 -10 -46 -8 -20 -15 -39 -15 -43 0 -14 114 -74 118
-63 2 7 7 10 11 7 5 -2 7 7 5 20 -1 14 3 31 9 38 7 6 12 18 13 25 3 37 5 43
12 39 4 -3 8 9 9 26 1 17 8 34 15 39 10 6 10 8 0 8 -7 0 -10 4 -7 10 7 12 23
116 29 185 0 11 6 23 11 27 6 5 5 8 -3 8 -7 0 -10 5 -7 10 4 6 12 7 18 3 8 -4
8 -2 -1 9 -8 10 -14 54 -16 114 -2 55 -6 108 -10 119 -6 16 -6 17 3 5 7 -9 11
-10 11 -3 0 6 -5 15 -11 19 -6 3 -9 17 -6 30 2 13 0 21 -4 18 -8 -4 -25 85
-23 114 1 6 -2 12 -7 12 -5 0 -8 3 -7 8 3 8 -14 54 -48 130 -13 29 -24 59 -24
67 0 8 -5 15 -11 15 -6 0 -8 7 -5 16 3 8 2 13 -3 10 -7 -5 -30 32 -27 45 0 3
-7 13 -16 23 -9 9 -15 23 -11 32 3 9 0 14 -8 12 -8 -2 -13 5 -13 15 1 10 0 16
-3 13 -6 -6 -17 6 -63 65 -14 18 -42 50 -62 70 -21 21 -38 44 -38 50 0 7 -2
10 -5 7 -5 -5 -56 37 -122 100 -13 12 -26 22 -29 22 -2 0 -16 7 -30 17 -16 10
-21 19 -14 23 8 5 6 9 -5 13 -9 4 -13 3 -10 -3 10 -16 -1 -12 -55 20 -28 17
-55 30 -60 30 -6 0 -10 5 -10 11 0 5 -5 7 -10 4 -6 -3 -13 1 -16 9 -3 9 -10
13 -15 11 -4 -3 -26 4 -49 15 -22 11 -40 17 -40 13 0 -4 -5 -2 -12 5 -7 7 -20
12 -31 12 -11 0 -15 4 -11 12 4 6 3 8 -3 5 -6 -4 -32 0 -59 7 -27 8 -62 16
-79 17 -16 2 -35 7 -42 12 -7 5 -16 6 -21 3 -5 -3 -23 -1 -40 4 -20 5 -34 5
-38 -1z"/>
<path d="M1133 2735 c0 -8 4 -12 9 -9 5 3 6 10 3 15 -9 13 -12 11 -12 -6z"/>
<path d="M1095 2720 c3 -5 8 -10 11 -10 2 0 4 5 4 10 0 6 -5 10 -11 10 -5 0
-7 -4 -4 -10z"/>
<path d="M2496 2642 c-2 -4 4 -8 14 -8 10 0 16 4 14 8 -3 4 -9 8 -14 8 -5 0
-11 -4 -14 -8z"/>
<path d="M2240 2614 c0 -6 -7 -11 -15 -11 -20 0 -97 -24 -112 -36 -7 -5 -18
-5 -24 -1 -7 4 -9 3 -5 -4 3 -6 -3 -13 -13 -17 -11 -3 -43 -28 -72 -56 -28
-27 -56 -46 -62 -43 -9 5 -9 4 -1 -5 9 -9 6 -23 -10 -54 -11 -23 -25 -45 -31
-49 -6 -5 -6 -8 2 -8 9 0 8 -7 -2 -26 -7 -15 -11 -33 -8 -40 3 -8 0 -14 -7
-14 -9 0 -9 -4 1 -17 12 -15 12 -16 -5 -9 -19 6 -19 6 -4 -11 13 -14 14 -23 6
-37 -8 -14 -7 -17 1 -12 10 7 14 -14 14 -76 0 -10 4 -15 8 -12 5 3 9 -2 9 -10
0 -29 4 -35 72 -111 21 -23 34 -46 30 -50 -4 -5 -2 -6 3 -2 14 8 28 -3 43 -33
7 -14 10 -17 7 -7 -5 17 -4 17 28 0 17 -10 35 -22 39 -28 4 -5 8 -7 8 -4 0 3
26 0 58 -6 31 -7 75 -11 97 -10 47 3 125 23 142 37 7 5 16 7 22 4 5 -3 12 1
15 10 4 9 13 14 21 10 9 -3 15 0 15 9 0 8 3 15 8 15 13 0 72 57 65 64 -3 3 -2
6 4 6 5 0 21 21 34 48 13 26 28 50 34 54 5 4 6 8 1 8 -5 0 -2 8 5 17 12 14 12
15 1 9 -11 -7 -12 -4 -4 10 5 11 10 52 10 92 0 40 3 76 6 79 3 4 6 11 6 17 0
6 -5 4 -10 -4 -5 -8 -10 -13 -10 -10 0 3 -4 20 -9 38 -6 18 -6 30 -1 27 5 -3
12 -1 15 5 4 6 3 10 -2 9 -22 -4 -33 3 -33 21 0 11 -3 20 -7 20 -5 1 -24 23
-43 50 -19 28 -40 50 -47 50 -6 0 -18 8 -25 19 -7 10 -17 20 -23 22 -5 2 -9 8
-7 12 1 5 -2 6 -8 2 -6 -4 -16 -2 -23 3 -7 6 -15 11 -19 11 -11 2 -40 11 -65
22 -16 6 -23 5 -23 -2 0 -8 -4 -8 -12 -2 -7 5 -26 9 -43 8 -16 -1 -33 3 -37 9
-6 8 -8 8 -8 0z m49 -127 c25 6 103 -16 96 -27 -3 -6 1 -7 9 -4 22 9 42 -6 25
-18 -10 -7 -9 -8 5 -4 20 7 86 -48 86 -71 0 -7 5 -13 11 -13 6 0 8 -7 5 -16
-3 -8 -2 -13 2 -10 14 8 30 -71 27 -132 -2 -31 -4 -58 -5 -59 -3 -4 -7 -19 -9
-34 0 -5 -6 -7 -13 -3 -7 4 -8 3 -4 -5 18 -28 -115 -150 -150 -137 -8 3 -13 2
-9 -3 10 -17 -20 -19 -40 -2 -18 15 -19 15 -7 0 10 -14 9 -17 -8 -22 -11 -3
-20 -2 -20 1 0 4 -19 7 -42 7 -33 0 -42 4 -40 15 3 12 1 12 -9 3 -9 -9 -17 -9
-33 0 -12 6 -25 12 -31 12 -5 1 -9 7 -7 14 1 7 -2 10 -8 6 -5 -3 -13 1 -16 9
-3 9 -10 14 -14 11 -12 -7 -53 52 -45 65 4 6 -1 7 -11 3 -12 -4 -15 -2 -12 8
3 8 11 13 17 11 7 -1 10 2 6 7 -3 6 -13 7 -22 4 -12 -5 -15 -2 -10 10 3 9 2
17 -3 17 -5 0 -7 14 -5 30 2 17 0 28 -5 25 -9 -6 -7 82 3 92 4 3 7 15 7 26 0
14 5 17 16 13 14 -5 15 -4 5 8 -11 12 -8 20 13 41 14 14 23 25 21 25 -8 0 29
34 63 58 17 13 36 20 42 17 5 -3 10 -2 10 3 0 11 84 31 88 21 2 -4 11 -5 21
-2z"/>
<path d="M2212 2348 c-19 -10 -30 -13 -26 -7 4 8 3 9 -4 5 -7 -4 -12 -14 -12
-22 0 -7 -9 -19 -20 -26 -11 -7 -20 -21 -20 -30 0 -10 -3 -18 -7 -18 -10 0
-10 -67 0 -76 4 -4 7 -15 7 -24 0 -17 27 -49 68 -82 21 -17 146 -32 136 -17
-4 6 10 15 29 18 13 2 44 36 40 44 -2 4 0 7 6 7 9 0 22 43 23 75 0 6 4 18 10
29 7 13 7 16 -1 12 -10 -7 -17 22 -11 49 1 6 -1 7 -5 3 -4 -4 -17 5 -30 20
-17 19 -20 29 -12 35 7 5 3 6 -9 2 -12 -3 -28 0 -35 7 -21 19 -90 17 -127 -4z"/>
<path d="M2413 2329 c-2 -23 3 -25 10 -4 4 8 3 16 -1 19 -4 3 -9 -4 -9 -15z"/>
<path d="M2065 2260 c-3 -6 1 -7 9 -4 18 7 21 14 7 14 -6 0 -13 -4 -16 -10z"/>
<path d="M2473 2035 c0 -8 4 -12 9 -9 5 3 6 10 3 15 -9 13 -12 11 -12 -6z"/>
<path d="M2420 2020 c-9 -6 -10 -10 -3 -10 6 0 15 5 18 10 8 12 4 12 -15 0z"/>
<path d="M2556 2542 c-3 -5 1 -9 9 -9 8 0 12 4 9 9 -3 4 -7 8 -9 8 -2 0 -6 -4
-9 -8z"/>
<path d="M2596 2507 c3 -10 9 -15 12 -12 3 3 0 11 -7 18 -10 9 -11 8 -5 -6z"/>
<path d="M2630 2500 c0 -5 5 -10 11 -10 5 0 7 5 4 10 -3 6 -8 10 -11 10 -2 0
-4 -4 -4 -10z"/>
<path d="M2646 2398 c3 -5 10 -6 15 -3 13 9 11 12 -6 12 -8 0 -12 -4 -9 -9z"/>
<path d="M2715 2369 c-4 -6 -5 -12 -2 -15 2 -3 7 2 10 11 7 17 1 20 -8 4z"/>
<path d="M1067 2317 c4 -6 -4 -8 -20 -5 -15 3 -24 2 -22 -2 5 -8 -66 -45 -80
-41 -5 1 -7 -1 -3 -5 4 -4 -8 -22 -27 -41 -19 -18 -31 -33 -28 -33 3 0 -2 -12
-12 -26 -9 -14 -18 -35 -20 -47 -3 -11 -10 -24 -16 -28 -8 -5 -8 -8 0 -13 6
-4 8 -14 3 -24 -9 -21 -8 -70 3 -96 4 -10 8 -31 9 -46 1 -15 4 -26 7 -24 3 2
12 -9 20 -24 18 -34 98 -112 116 -112 7 0 13 -5 13 -11 0 -6 6 -9 12 -7 7 3
23 -1 36 -8 40 -20 160 -11 217 17 28 13 53 28 56 33 4 5 12 6 18 2 7 -5 8 -1
4 10 -5 14 -3 16 11 11 11 -4 15 -3 10 4 -4 6 -2 14 4 18 5 3 21 27 35 53 14
26 27 45 30 42 2 -3 3 7 2 21 -2 14 0 25 4 25 4 0 5 17 3 38 -2 28 -1 33 7 22
6 -8 11 -10 11 -4 0 5 -4 14 -9 20 -5 5 -11 23 -14 39 -2 17 -9 43 -15 58 -7
16 -9 33 -6 39 4 7 2 8 -4 4 -11 -6 -16 6 -13 26 0 5 -3 7 -8 5 -5 -1 -22 12
-38 30 -47 53 -134 87 -225 88 -49 1 -75 -2 -71 -8z m157 -106 c16 -13 18 -13
11 -1 -7 12 -4 12 15 -2 14 -9 24 -21 23 -27 -2 -6 3 -8 10 -5 7 2 19 -7 27
-21 7 -14 17 -25 22 -25 5 0 6 -4 3 -10 -3 -5 -1 -10 4 -10 6 0 10 -3 10 -7
-1 -5 -1 -10 1 -13 1 -3 3 -15 6 -28 3 -17 0 -21 -8 -16 -7 4 -6 -1 3 -12 15
-19 15 -59 -1 -49 -4 3 -6 -3 -3 -13 6 -26 -14 -75 -29 -66 -6 4 -8 3 -5 -3 6
-10 -48 -72 -65 -74 -12 -2 -21 -5 -38 -12 -44 -19 -160 -8 -160 14 0 6 -4 7
-10 4 -5 -3 -10 -1 -10 4 0 6 -5 11 -11 11 -38 0 -92 117 -88 189 3 36 5 40
23 36 18 -5 19 -5 4 5 -9 6 -15 17 -12 25 4 8 10 12 15 9 5 -3 7 1 4 8 -6 19
21 52 36 42 7 -4 10 -3 6 3 -9 14 26 44 52 46 11 1 21 5 21 8 0 22 117 14 144
-10z"/>
<path d="M1150 2133 c0 -13 -3 -14 -11 -6 -9 9 -15 8 -26 -3 -8 -8 -19 -12
-24 -9 -5 4 -9 1 -9 -5 0 -6 -5 -8 -10 -5 -6 4 -10 3 -9 -2 1 -4 -5 -23 -13
-41 -8 -19 -14 -43 -14 -55 2 -29 37 -87 52 -87 7 0 20 -7 28 -16 9 -8 16 -11
16 -6 0 5 14 8 30 7 17 -1 33 1 35 6 3 4 12 6 20 2 11 -4 13 -1 9 11 -3 9 -1
16 4 16 6 0 14 9 17 20 4 11 9 18 13 16 6 -3 8 49 3 57 -2 1 -4 12 -7 25 -3
16 0 21 8 16 7 -5 8 -3 4 5 -5 7 -11 10 -14 7 -3 -4 -16 4 -29 16 -14 13 -32
23 -41 23 -9 0 -16 6 -14 13 1 6 -2 12 -8 12 -5 0 -10 -8 -10 -17z"/>
<path d="M1286 2122 c-3 -5 1 -9 9 -9 8 0 12 4 9 9 -3 4 -7 8 -9 8 -2 0 -6 -4
-9 -8z"/>
<path d="M980 2020 c-8 -5 -10 -10 -5 -10 6 0 17 5 25 10 8 5 11 10 5 10 -5 0
-17 -5 -25 -10z"/>
<path d="M1250 1939 c0 -5 5 -7 10 -4 6 3 10 8 10 11 0 2 -4 4 -10 4 -5 0 -10
-5 -10 -11z"/>
<path d="M966 1918 c3 -5 10 -6 15 -3 13 9 11 12 -6 12 -8 0 -12 -4 -9 -9z"/>
<path d="M1015 1919 c-3 -4 2 -6 10 -5 21 3 28 13 10 13 -9 0 -18 -4 -20 -8z"/>
<path d="M1010 1879 c0 -5 5 -7 10 -4 6 3 10 8 10 11 0 2 -4 4 -10 4 -5 0 -10
-5 -10 -11z"/>
<path d="M1150 1885 c0 -7 30 -13 34 -7 3 4 -4 9 -15 9 -10 1 -19 0 -19 -2z"/>
<path d="M1094 1856 c1 -8 5 -18 8 -22 4 -3 5 1 4 10 -1 8 -5 18 -8 22 -4 3
-5 -1 -4 -10z"/>
<path d="M1235 1861 c-3 -5 -2 -12 3 -15 5 -3 9 1 9 9 0 17 -3 19 -12 6z"/>
<path d="M716 2307 c3 -10 9 -15 12 -12 3 3 0 11 -7 18 -10 9 -11 8 -5 -6z"/>
<path d="M2759 2273 c-13 -17 -13 -17 6 -3 11 8 22 16 24 17 2 2 0 3 -6 3 -6
0 -17 -8 -24 -17z"/>
<path d="M1967 1939 c7 -7 15 -10 18 -7 3 3 -2 9 -12 12 -14 6 -15 5 -6 -5z"/>
<path d="M2016 1882 c-3 -5 1 -9 9 -9 8 0 12 4 9 9 -3 4 -7 8 -9 8 -2 0 -6 -4
-9 -8z"/>
<path d="M1650 1861 c0 -4 -13 -6 -30 -5 -16 1 -30 -2 -30 -8 0 -5 -3 -7 -8
-5 -4 3 -25 -4 -47 -14 -22 -11 -45 -17 -53 -14 -7 2 -11 1 -8 -4 3 -5 -6 -16
-20 -26 -21 -13 -28 -14 -42 -4 -14 11 -15 11 -5 -1 10 -11 9 -18 -9 -37 -12
-13 -28 -23 -35 -23 -8 0 -11 -5 -7 -12 5 -8 2 -9 -10 -5 -10 4 -15 3 -11 -3
8 -13 -60 -102 -70 -92 -5 4 -5 1 -1 -6 4 -7 3 -18 -2 -25 -11 -14 -44 -104
-46 -129 -1 -9 -9 -24 -17 -34 -8 -10 -9 -15 -4 -12 11 7 12 -113 1 -130 -3
-6 1 -23 9 -38 8 -16 15 -34 15 -41 0 -27 34 -111 61 -150 16 -23 29 -49 29
-57 0 -9 6 -15 13 -13 6 1 11 -4 9 -11 -1 -8 1 -11 6 -9 4 3 25 -12 46 -34 22
-21 47 -41 58 -45 10 -3 18 -10 18 -15 0 -5 3 -9 8 -8 18 3 51 -14 45 -24 -3
-5 -1 -7 4 -4 11 7 77 -16 69 -24 -4 -4 51 -9 122 -12 17 -1 32 -5 32 -10 0
-4 4 -5 10 -2 20 12 50 14 50 2 0 -8 2 -9 8 -1 13 20 37 22 57 5 18 -15 19
-15 7 0 -10 14 -10 18 3 23 11 4 14 2 9 -7 -6 -9 -5 -9 8 0 8 7 18 10 21 6 4
-3 7 -1 7 6 0 7 6 11 14 8 8 -3 26 3 39 14 14 10 29 19 35 19 5 0 19 9 32 20
25 22 45 27 34 8 -4 -7 -3 -8 4 -4 6 4 8 14 5 24 -3 9 -3 14 2 10 4 -4 19 7
32 23 15 17 32 28 40 25 8 -3 12 -2 8 3 -7 13 5 42 16 35 5 -3 9 2 9 11 0 10
5 13 12 9 6 -4 8 -3 5 2 -7 13 23 75 33 69 5 -3 6 5 2 17 -3 14 -1 19 6 14 8
-5 10 -1 5 10 -5 14 -3 16 12 11 15 -6 16 -5 6 7 -7 9 -9 21 -5 28 12 19 15
42 18 161 2 59 0 107 -4 107 -4 0 -10 12 -13 28 -9 45 -12 56 -20 70 -5 6 -5
17 -1 24 4 7 3 8 -4 4 -7 -4 -12 -1 -12 7 0 8 -7 20 -15 27 -9 7 -13 15 -11
18 3 2 -2 11 -10 19 -8 8 -11 19 -8 25 4 6 3 8 -2 5 -5 -3 -29 16 -53 43 -24
27 -47 47 -51 45 -4 -3 -14 3 -21 12 -12 14 -12 16 1 8 9 -5 12 -5 7 1 -5 5
-12 9 -15 9 -17 0 -72 28 -72 37 0 5 -4 7 -9 4 -5 -3 -14 1 -21 9 -7 8 -16 13
-20 10 -4 -3 -28 2 -54 9 -48 15 -226 20 -226 7z m185 -142 c6 -3 29 -11 53
-19 23 -7 42 -17 42 -22 0 -5 5 -6 10 -3 6 3 10 2 10 -3 0 -5 9 -12 21 -15 14
-4 18 -10 13 -19 -4 -7 -4 -10 1 -6 12 11 47 -12 41 -27 -3 -8 0 -12 7 -10 7
3 22 -11 35 -30 25 -39 28 -50 10 -39 -7 4 -8 3 -4 -5 4 -6 12 -9 17 -6 5 4
12 -2 15 -12 12 -36 15 -48 15 -53 1 -3 5 -10 10 -17 7 -7 6 -14 -2 -19 -9 -5
-9 -10 2 -18 14 -11 23 -106 10 -106 -3 0 -7 -18 -8 -41 -1 -45 -20 -99 -35
-99 -5 0 -7 -4 -4 -8 7 -12 -69 -107 -83 -104 -7 1 -10 -2 -6 -8 3 -5 -5 -15
-19 -22 -14 -6 -26 -15 -26 -21 0 -5 -7 -6 -16 -3 -8 3 -13 2 -10 -3 5 -7 -26
-24 -66 -36 -5 -1 -9 -4 -10 -5 -6 -5 -66 -10 -124 -11 -140 -3 -284 90 -348
226 -16 33 -31 64 -34 69 -3 5 1 6 9 1 11 -7 11 -5 -1 9 -16 20 -20 157 -6
191 5 11 10 25 12 30 11 47 88 165 106 165 5 0 6 -5 2 -12 -4 -7 -3 -8 5 -4 6
4 9 11 6 16 -3 5 14 22 37 38 43 29 128 66 128 56 0 -3 7 -1 16 4 17 10 152
11 169 1z"/>
<path d="M1670 1581 c0 -3 -11 -11 -25 -18 -19 -8 -23 -8 -18 0 4 7 -9 -3 -27
-20 -19 -18 -36 -33 -40 -33 -3 0 -14 -14 -24 -30 -9 -17 -22 -27 -28 -24 -6
4 -8 2 -5 -4 8 -12 -2 -44 -12 -38 -3 2 -5 -10 -5 -27 1 -18 -3 -40 -8 -49 -6
-12 -5 -18 3 -18 8 0 8 -4 -1 -15 -7 -8 -8 -15 -3 -15 5 0 10 -6 11 -12 7 -66
11 -82 26 -90 9 -5 16 -14 16 -20 0 -5 11 -19 25 -30 14 -11 23 -24 20 -29 -4
-5 1 -6 9 -3 8 3 19 -3 25 -15 6 -11 17 -18 25 -15 7 3 21 -2 30 -11 12 -12
16 -13 16 -3 0 9 3 9 8 2 9 -15 134 -12 147 3 13 15 46 20 65 8 12 -7 13 -6 3
6 -10 13 -8 19 16 37 22 16 31 18 42 9 11 -10 10 -9 0 6 -12 15 -11 21 8 41
11 12 18 25 15 29 -4 4 0 9 8 12 9 4 14 17 13 35 -1 17 1 30 4 30 8 0 6 67 -4
109 -5 22 -4 31 3 27 6 -3 13 -2 16 3 4 5 -2 8 -11 7 -10 -2 -23 6 -30 18 -16
27 -16 39 -1 30 7 -4 8 -3 4 5 -4 6 -11 9 -15 6 -5 -2 -22 8 -38 23 -42 38
-67 56 -84 60 -8 2 -23 6 -34 9 -29 8 -145 11 -145 4z"/>
<path d="M1559 1533 c-13 -16 -12 -17 4 -4 9 7 17 15 17 17 0 8 -8 3 -21 -13z"/>
<path d="M2075 1201 c-3 -5 -2 -12 3 -15 5 -3 9 1 9 9 0 17 -3 19 -12 6z"/>
<path d="M1535 1120 c-3 -5 -1 -10 4 -10 6 0 11 5 11 10 0 6 -2 10 -4 10 -3 0
-8 -4 -11 -10z"/>
<path d="M1410 1840 c0 -5 5 -10 11 -10 5 0 7 5 4 10 -3 6 -8 10 -11 10 -2 0
-4 -4 -4 -10z"/>
<path d="M1460 1840 c-12 -7 -10 -9 7 -7 12 0 19 5 17 9 -6 10 -6 10 -24 -2z"/>
<path d="M1355 1749 c-4 -6 -5 -12 -2 -15 2 -3 7 2 10 11 7 17 1 20 -8 4z"/>
<path d="M1255 1711 c-3 -5 -2 -12 3 -15 5 -3 9 1 9 9 0 17 -3 19 -12 6z"/>
<path d="M1295 1680 c-3 -5 -1 -10 4 -10 6 0 11 5 11 10 0 6 -2 10 -4 10 -3 0
-8 -4 -11 -10z"/>
<path d="M805 1001 c-6 -5 -25 -18 -44 -28 -58 -32 -60 -45 -12 -91 23 -22 44
-49 45 -59 2 -10 9 -18 17 -18 8 0 30 -16 49 -36 19 -20 40 -38 45 -40 20 -8
104 -74 105 -82 0 -5 -5 -5 -12 -1 -6 4 -8 3 -5 -4 4 -5 15 -8 26 -5 10 2 25
-3 34 -11 8 -9 20 -16 26 -16 6 0 11 -5 11 -11 0 -5 4 -8 9 -4 5 3 16 -2 24
-10 9 -8 23 -15 31 -15 9 0 16 -4 16 -8 0 -5 6 -9 13 -10 6 0 41 -13 77 -28
80 -33 182 -64 235 -70 49 -6 80 -12 80 -15 0 -1 78 -3 173 -4 119 -1 172 2
172 9 0 6 5 4 10 -4 5 -8 10 -10 10 -5 0 11 20 16 77 18 17 1 29 5 27 8 -2 4
7 9 21 11 22 5 24 3 13 -11 -7 -9 0 -5 14 8 15 12 31 20 37 16 6 -3 11 -1 11
6 0 7 3 9 6 6 4 -3 16 -2 27 4 15 9 18 8 11 -3 -5 -8 -1 -7 12 3 10 9 50 29
87 44 37 16 71 33 74 38 3 5 9 3 14 -4 7 -11 9 -10 9 4 0 9 7 17 15 17 8 0 15
4 15 8 0 5 17 16 38 25 20 9 68 42 105 72 37 31 72 53 77 50 6 -3 7 1 4 9 -5
13 15 31 41 36 6 1 12 4 15 7 3 4 -1 3 -7 -1 -7 -4 -13 -5 -13 -2 0 11 40 46
52 46 6 0 9 3 5 6 -7 8 44 65 53 59 4 -2 5 6 3 19 -3 13 -12 27 -21 30 -10 3
-32 15 -51 26 l-33 21 -26 -31 c-19 -23 -28 -27 -34 -18 -7 10 -8 10 -7 -2 3
-23 -12 -50 -27 -50 -8 0 -14 -7 -14 -15 0 -8 -4 -15 -8 -15 -5 0 -30 -20 -57
-45 -27 -24 -52 -42 -57 -39 -4 3 -8 1 -8 -5 0 -14 -100 -72 -112 -65 -7 4 -8
2 -4 -4 4 -7 2 -13 -3 -13 -6 -1 -16 -2 -21 -3 -6 0 -15 -8 -20 -16 -5 -8 -10
-12 -10 -7 0 4 -11 0 -25 -9 -13 -8 -30 -12 -36 -8 -7 4 -9 3 -5 -4 5 -9 -47
-34 -79 -38 -5 0 -17 -4 -26 -8 -9 -4 -33 -8 -52 -9 -19 -1 -33 -5 -30 -9 2
-5 -2 -9 -9 -9 -7 -1 -22 -3 -33 -5 -30 -4 -147 -17 -170 -18 -13 -1 -20 5
-19 16 1 10 -3 15 -8 12 -5 -3 -7 -13 -4 -20 5 -13 -7 -14 -77 -9 -45 4 -97 7
-114 7 -18 1 -33 5 -33 9 0 4 -9 5 -20 2 -11 -3 -20 -1 -20 4 0 5 -13 8 -30 7
-16 -1 -30 2 -30 7 0 5 -3 8 -7 8 -28 -5 -53 2 -47 13 4 6 3 8 -3 5 -14 -9
-83 12 -83 24 0 6 -4 8 -9 5 -13 -8 -62 19 -53 29 4 5 2 5 -5 2 -14 -9 -45 2
-38 14 3 4 -4 6 -15 4 -11 -2 -20 0 -20 6 0 5 -6 8 -12 7 -7 -2 -12 3 -10 10
1 7 -4 12 -12 10 -19 -4 -136 79 -133 95 1 7 -4 11 -10 10 -17 -4 -53 28 -46
40 3 6 1 7 -5 3 -6 -3 -18 4 -26 16 -9 12 -16 18 -16 13 0 -5 -6 0 -14 10 -8
11 -12 24 -9 29 4 5 2 6 -4 3 -12 -8 -56 36 -46 46 10 11 -12 8 -22 -2z"/>
<path d="M706 982 c-3 -5 1 -9 9 -9 8 0 12 4 9 9 -3 4 -7 8 -9 8 -2 0 -6 -4
-9 -8z"/>
<path d="M2575 941 c-3 -5 -2 -12 3 -15 5 -3 9 1 9 9 0 17 -3 19 -12 6z"/>
<path d="M1996 427 c3 -10 9 -15 12 -12 3 3 0 11 -7 18 -10 9 -11 8 -5 -6z"/>
</g>
</svg>
